<svg width="200" height="150" viewBox="0 0 200 150" fill="none" xmlns="http://www.w3.org/2000/svg">
  <rect width="200" height="150" fill="#1e293b"/>
  <rect x="40" y="20" width="120" height="110" rx="4" fill="#334155"/>
  <rect x="45" y="25" width="110" height="100" rx="2" fill="#475569"/>
  <rect x="50" y="30" width="100" height="90" rx="2" fill="#64748b"/>
  <rect x="55" y="35" width="90" height="80" rx="1" fill="#1e293b"/>
  <rect x="60" y="40" width="80" height="8" rx="1" fill="#06b6d4"/>
  <rect x="60" y="52" width="80" height="8" rx="1" fill="#06b6d4"/>
  <rect x="60" y="64" width="80" height="8" rx="1" fill="#06b6d4"/>
  <rect x="60" y="76" width="80" height="8" rx="1" fill="#06b6d4"/>
  <rect x="60" y="88" width="80" height="8" rx="1" fill="#06b6d4"/>
  <rect x="60" y="100" width="80" height="8" rx="1" fill="#06b6d4"/>
  <rect x="35" y="130" width="8" height="15" rx="1" fill="#94a3b8"/>
  <rect x="157" y="130" width="8" height="15" rx="1" fill="#94a3b8"/>
  <text x="100" y="140" text-anchor="middle" fill="#94a3b8" font-family="monospace" font-size="10">RAM</text>
</svg>
