<svg width="200" height="150" viewBox="0 0 200 150" fill="none" xmlns="http://www.w3.org/2000/svg">
  <rect width="200" height="150" fill="#1e293b"/>
  <rect x="40" y="40" width="120" height="70" rx="4" fill="#334155"/>
  <rect x="50" y="50" width="100" height="50" rx="2" fill="#475569"/>
  <rect x="30" y="60" width="8" height="4" fill="#06b6d4"/>
  <rect x="30" y="70" width="8" height="4" fill="#06b6d4"/>
  <rect x="30" y="80" width="8" height="4" fill="#06b6d4"/>
  <rect x="162" y="60" width="8" height="4" fill="#06b6d4"/>
  <rect x="162" y="70" width="8" height="4" fill="#06b6d4"/>
  <rect x="162" y="80" width="8" height="4" fill="#06b6d4"/>
  <rect x="80" y="30" width="4" height="8" fill="#06b6d4"/>
  <rect x="90" y="30" width="4" height="8" fill="#06b6d4"/>
  <rect x="100" y="30" width="4" height="8" fill="#06b6d4"/>
  <rect x="110" y="30" width="4" height="8" fill="#06b6d4"/>
  <rect x="80" y="112" width="4" height="8" fill="#06b6d4"/>
  <rect x="90" y="112" width="4" height="8" fill="#06b6d4"/>
  <rect x="100" y="112" width="4" height="8" fill="#06b6d4"/>
  <rect x="110" y="112" width="4" height="8" fill="#06b6d4"/>
  <text x="100" y="80" text-anchor="middle" fill="#94a3b8" font-family="monospace" font-size="12">CPU</text>
</svg>
