<svg width="200" height="150" viewBox="0 0 200 150" fill="none" xmlns="http://www.w3.org/2000/svg">
  <!-- AMD Ryzen 7 7800X3D CPU -->
  <rect width="200" height="150" fill="#0f172a"/>
  
  <!-- CPU Package -->
  <rect x="50" y="40" width="100" height="70" rx="4" fill="#1e293b" stroke="#334155" stroke-width="1"/>
  <rect x="55" y="45" width="90" height="60" rx="3" fill="#374151"/>
  <rect x="60" y="50" width="80" height="50" rx="2" fill="#4b5563"/>
  
  <!-- AMD Logo -->
  <rect x="85" y="58" width="30" height="8" rx="1" fill="#dc2626"/>
  <text x="100" y="64" text-anchor="middle" fill="white" font-family="Arial" font-size="5" font-weight="bold">AMD</text>
  
  <!-- CPU Model -->
  <text x="100" y="75" text-anchor="middle" fill="#e5e7eb" font-family="Arial" font-size="6" font-weight="bold">RYZEN 7</text>
  <text x="100" y="85" text-anchor="middle" fill="#f87171" font-family="Arial" font-size="6" font-weight="bold">7800X3D</text>
  
  <!-- 3D V-Cache Badge -->
  <rect x="110" y="52" width="25" height="8" rx="1" fill="#7c2d12"/>
  <text x="122.5" y="58" text-anchor="middle" fill="#fed7aa" font-family="Arial" font-size="4" font-weight="bold">3D V-CACHE</text>
  
  <!-- AM5 Socket Pins -->
  <g transform="translate(50,110)">
    <rect width="100" height="20" fill="#6b7280"/>
    <!-- LGA Pin pattern -->
    <g fill="#dc2626" opacity="0.7">
      <rect x="5" y="3" width="1" height="1"/>
      <rect x="8" y="3" width="1" height="1"/>
      <rect x="11" y="3" width="1" height="1"/>
      <rect x="14" y="3" width="1" height="1"/>
      <rect x="17" y="3" width="1" height="1"/>
      <rect x="20" y="3" width="1" height="1"/>
      <rect x="23" y="3" width="1" height="1"/>
      <rect x="26" y="3" width="1" height="1"/>
      <rect x="29" y="3" width="1" height="1"/>
      <rect x="32" y="3" width="1" height="1"/>
      <rect x="35" y="3" width="1" height="1"/>
      <rect x="38" y="3" width="1" height="1"/>
      <rect x="41" y="3" width="1" height="1"/>
      <rect x="44" y="3" width="1" height="1"/>
      <rect x="47" y="3" width="1" height="1"/>
      <rect x="50" y="3" width="1" height="1"/>
      <rect x="53" y="3" width="1" height="1"/>
      <rect x="56" y="3" width="1" height="1"/>
      <rect x="59" y="3" width="1" height="1"/>
      <rect x="62" y="3" width="1" height="1"/>
      <rect x="65" y="3" width="1" height="1"/>
      <rect x="68" y="3" width="1" height="1"/>
      <rect x="71" y="3" width="1" height="1"/>
      <rect x="74" y="3" width="1" height="1"/>
      <rect x="77" y="3" width="1" height="1"/>
      <rect x="80" y="3" width="1" height="1"/>
      <rect x="83" y="3" width="1" height="1"/>
      <rect x="86" y="3" width="1" height="1"/>
      <rect x="89" y="3" width="1" height="1"/>
      <rect x="92" y="3" width="1" height="1"/>
      
      <rect x="5" y="7" width="1" height="1"/>
      <rect x="8" y="7" width="1" height="1"/>
      <rect x="11" y="7" width="1" height="1"/>
      <rect x="14" y="7" width="1" height="1"/>
      <rect x="17" y="7" width="1" height="1"/>
      <rect x="20" y="7" width="1" height="1"/>
      <rect x="23" y="7" width="1" height="1"/>
      <rect x="26" y="7" width="1" height="1"/>
      <rect x="29" y="7" width="1" height="1"/>
      <rect x="32" y="7" width="1" height="1"/>
      <rect x="35" y="7" width="1" height="1"/>
      <rect x="38" y="7" width="1" height="1"/>
      <rect x="41" y="7" width="1" height="1"/>
      <rect x="44" y="7" width="1" height="1"/>
      <rect x="47" y="7" width="1" height="1"/>
      <rect x="50" y="7" width="1" height="1"/>
      <rect x="53" y="7" width="1" height="1"/>
      <rect x="56" y="7" width="1" height="1"/>
      <rect x="59" y="7" width="1" height="1"/>
      <rect x="62" y="7" width="1" height="1"/>
      <rect x="65" y="7" width="1" height="1"/>
      <rect x="68" y="7" width="1" height="1"/>
      <rect x="71" y="7" width="1" height="1"/>
      <rect x="74" y="7" width="1" height="1"/>
      <rect x="77" y="7" width="1" height="1"/>
      <rect x="80" y="7" width="1" height="1"/>
      <rect x="83" y="7" width="1" height="1"/>
      <rect x="86" y="7" width="1" height="1"/>
      <rect x="89" y="7" width="1" height="1"/>
      <rect x="92" y="7" width="1" height="1"/>
    </g>
  </g>
  
  <!-- Corner Notch -->
  <rect x="45" y="35" width="8" height="8" fill="#0f172a"/>
  
  <!-- Specs -->
  <text x="100" y="25" text-anchor="middle" fill="#94a3b8" font-family="Arial" font-size="4">8 Cores • 16 Threads</text>
  <text x="100" y="30" text-anchor="middle" fill="#94a3b8" font-family="Arial" font-size="4">5.0 GHz Max Boost</text>
  
  <!-- AMD Red Accent -->
  <rect x="60" y="95" width="80" height="1" fill="#dc2626"/>
  
  <!-- Zen 4 Architecture Badge -->
  <rect x="65" y="52" width="18" height="6" rx="1" fill="#450a0a"/>
  <text x="74" y="57" text-anchor="middle" fill="#fca5a5" font-family="Arial" font-size="3" font-weight="bold">ZEN 4</text>
</svg>
